<svg id="Layer_1" data-name="Layer 1" xmlns="http://www.w3.org/2000/svg" viewBox="0 0 1018.7 815.46"><defs><style>.cls-1{fill:#fff;}</style></defs><path class="cls-1" d="M951.13,426.77a844.08,844.08,0,0,1-95,70.87,593.58,593.58,0,0,0,41.41-59.44c9.19-4.61,18-9.2,26.13-13.7l1.83-1L917,408l-1.83,1c-.35.19-.77.39-1.11.58,4.94-9.21,9.42-18.09,13.41-26.5l.9-1.89-16-7.62-.9,1.89c-7.17,15.11-16,31.8-26.44,49.27-9.43,4.64-19.59,9.26-30,13.84l-8.8-13.62-1.76,1.14a638.78,638.78,0,0,1-90.8,48.25,718.3,718.3,0,0,1-191.68,26.31c-5.22,0-10.49-.05-15.78-.17-105-2.25-210.79-28.15-305.92-74.91l-1.87-.91-7.84,15.91,1.88.93c97.41,47.88,205.78,74.41,313.38,76.73,5.34.11,10.63.17,15.9.17,20.86,0,41.1-.93,60.79-2.56a602,602,0,0,1-208.89,5.88C265,499.67,158.28,428.44,94.9,372.57l-1.57-1.37L81.6,384.5l1.58,1.39C148.33,443.34,258.09,516.59,411,539.25A616.34,616.34,0,0,0,501,545.88c102.82,0,191.07-26.13,256-53.91A762.34,762.34,0,0,0,867.13,452.6a566,566,0,0,1-60.41,74.23A802.54,802.54,0,0,1,689.4,579.56c-124,43.94-242.71,51.71-346,42.93A579.45,579.45,0,0,1,205.9,534.66,578.83,578.83,0,0,0,382.17,591.9a587.83,587.83,0,0,0,89.11,6.84c136.05,0,241.93-48.45,292.93-77.32l1.82-1L757.28,505l-1.82,1c-65,36.81-199.54,94.62-370.6,68.39-96.14-14.78-173.75-52.06-232.49-91.66-7.3-8.06-13.77-15.64-19.34-22.49l-1.32-1.62-6.06,4.93C82.58,430.94,52.05,399,34.74,378.65l-1.36-1.59L19.87,388.58l1.36,1.6c21.12,24.75,61.13,66.32,119.31,105.87A609.7,609.7,0,0,0,293.28,617,960.48,960.48,0,0,1,75.56,559.33l-2-.78-6.56,16.5,1.94.77a974.16,974.16,0,0,0,269.65,63.92,573.73,573.73,0,0,0,235.81,50.33c4.62,0,8.95-.36,13.49-.47-9.45,1.62-18.9,3.24-28.36,4.44C425.29,711,288,686.71,151.38,621.8l-1.89-.89-7.63,16,1.89.89C254.34,690.39,366.2,717,476.24,717a683.85,683.85,0,0,0,85.57-5.38,679.47,679.47,0,0,0,78-14.56l2-.51-2.56-10.32c82.78-9,147.62-32.75,182.39-48.34l1.9-.86-7.27-16.2-1.9.86c-34.4,15.43-103,40.91-190.83,48.37A542.3,542.3,0,0,0,731.26,614a549.48,549.48,0,0,0,86.32-72.93A852.45,852.45,0,0,0,962.72,440.22l1.58-1.36L952.72,425.4ZM421.85,651.21c-9.09-2.57-17.94-5.36-26.61-8.29,7.4.19,14.59.67,22.11.67,95.88,0,189.4-15.91,278-47.3,22.15-7.85,43.86-16.75,65.22-26.46-12.33,10.13-25.28,20-39.23,29.49A532.51,532.51,0,0,1,562.14,672,555.92,555.92,0,0,1,421.85,651.21Z"/><path class="cls-1" d="M358.7,288.9a107.19,107.19,0,0,0,17.54-1.46c48.3-8,72.49-46.23,76.86-53.8a8.88,8.88,0,0,0-15.4-8.86c-3.64,6.36-23.92,38.42-64.38,45.15-33,5.47-58.35-9.14-67.67-15.67A8.88,8.88,0,0,0,291.81,263a8.86,8.86,0,0,0,3.64,5.76C304.07,274.84,327.46,288.9,358.7,288.9Z"/><path class="cls-1" d="M643.73,243a100.44,100.44,0,0,0,14-1c52-7.36,76.21-52,78.8-57.05a8.86,8.86,0,1,0-15.79-8.06c-2.17,4.21-22.31,41.41-65.5,47.53-33.65,4.87-59-12.69-66-18.16a8.77,8.77,0,0,0-6.52-1.85,8.9,8.9,0,0,0-7.78,9.89,8.76,8.76,0,0,0,3.33,5.92C585.12,225.55,609.93,243,643.73,243Z"/><path class="cls-1" d="M458.23,336.18a8.86,8.86,0,1,0-11.55,13.45c6.83,5.86,31.84,25,66.73,25a97.3,97.3,0,0,0,13.54-.95c53.28-7.48,76-54.11,78.42-59.38a8.88,8.88,0,1,0-16.13-7.41c-.8,1.76-20,42.94-64.74,49.22C490.23,360.87,465.11,342.06,458.23,336.18Z"/><path class="cls-1" d="M386,144.17a108.75,108.75,0,0,0,17.35,1.42,94.71,94.71,0,0,0,41.8-9.37c34.43-16.7,56.54-54.07,57.69-97.54a8.9,8.9,0,0,0-8.64-9.1A8.66,8.66,0,0,0,488,32a8.77,8.77,0,0,0-2.95,6.24c-1,36.8-19.24,68.24-47.67,82-18.22,8.87-36.48,8.36-48.59,6.4A8.79,8.79,0,0,0,378.62,134,8.89,8.89,0,0,0,386,144.17Z"/><path class="cls-1" d="M476.29,128.45a8.87,8.87,0,0,0,1.59,17.6,8.51,8.51,0,0,0,1.6-.15c14.81-2.71,27.84-9.11,37.71-18.53,23.79-22.77,29.31-61.64,14.08-99A8.87,8.87,0,1,0,514.83,35c12.28,30.16,8.3,62.11-9.92,79.51C497.46,121.65,487.83,126.34,476.29,128.45Z"/><path class="cls-1" d="M777.87,596.13a46.5,46.5,0,0,0-11.93,33.76l.11,2.08,2.09-.1a46.79,46.79,0,0,0,44.24-49.2l-.11-2.08-2.09.1A46.45,46.45,0,0,0,777.87,596.13Z"/><path class="cls-1" d="M804.64,656.2a25.62,25.62,0,0,0-19.73-.61l-1.95.75.73,2a25.82,25.82,0,0,0,33.27,15l1.95-.74-.74-2A25.64,25.64,0,0,0,804.64,656.2Z"/><path class="cls-1" d="M93.81,513.87l2.09-.18-.19-2.08A63.77,63.77,0,0,0,73.05,468a64.07,64.07,0,0,0-46.85-14.8l-2.08.19.18,2.08a64.2,64.2,0,0,0,63.84,58.64C90,514.12,91.92,514,93.81,513.87Z"/><path class="cls-1" d="M80.71,632.84l-.89,1.9,1.88.89a44.27,44.27,0,0,0,58.94-21.07l.9-1.9-1.89-.89A44.36,44.36,0,0,0,80.71,632.84Z"/><path class="cls-1" d="M996.94,391.76A44.27,44.27,0,0,0,938,412.83l-.9,1.9,1.89.89a44.25,44.25,0,0,0,58.92-21.07l.9-1.9Z"/><path class="cls-1" d="M730.07,677.13c-34.39,30.1-126.44,97.72-258.82,97.72-6,0-12.09-.13-18.23-.42-126.88-6.19-213.86-74.16-245.37-103.11l-1.54-1.41-12,13.09,1.54,1.42C236.54,722,324.31,786,452.15,792.19c2.81.13,5.55.25,8.32.32,3.84.1,7.64.16,11.41.16,138,0,234.28-71,269.9-102.15l1.57-1.38-11.71-13.39Z"/></svg>