<svg id="Layer_1" data-name="Layer 1" xmlns="http://www.w3.org/2000/svg" viewBox="0 0 1300 850"><defs><style>.cls-1{fill:#89c9b8;}</style></defs><path class="cls-1" d="M124.09,746.58v-9.17l4.08-.34a2.82,2.82,0,0,0,2.93-3.16V681.3l-6.44-.34v-9.61H145l32,51.92h.23v-42L169.8,681v-9.61h27.6v9.16l-4.07.34q-2.72.23-2.72,3.51v62.22H177.38l-32.7-52.72h-.22v42.76l7.35.34v9.62Z"/><path class="cls-1" d="M265.34,670a29.79,29.79,0,0,1,22.46,9.5q9,9.51,9.05,29t-9,29.53q-9,10-24.33,10t-24-9.95q-8.72-10-8.71-29a50.22,50.22,0,0,1,3.05-18.27,30.08,30.08,0,0,1,8-12.16A34.74,34.74,0,0,1,265.34,670Zm-20.42,38.57q0,28.08,19.46,28.06,10.41,0,14.59-8.6,3.86-7.57,3.85-18.55a47.24,47.24,0,0,0-3.39-18.1,15.76,15.76,0,0,0-5.83-7.12,17.92,17.92,0,0,0-10.13-2.61,15.36,15.36,0,0,0-10.69,4.07,21.18,21.18,0,0,0-6.16,9.84A46.18,46.18,0,0,0,244.92,708.56Z"/><path class="cls-1" d="M350.13,684.58v37.56q0,7.93,3.79,11.14t10.86,3.23q7.08,0,11-3.51t3.91-10.29V681.3L373.1,681v-9.61h26.81v9.16l-3.73.34c-2.19.22-3.28,1.36-3.28,3.4v40.38q0,11-7.7,17.2t-21.26,6.22q-13.57,0-20.54-6t-7-19.18V681.3l-6.56-.34v-9.61h27.38v9.16l-3.73.34a4.67,4.67,0,0,0-2.61,1A3.73,3.73,0,0,0,350.13,684.58Z"/><path class="cls-1" d="M432.72,746.58v-9.17l3.73-.34q3.29-.33,3.29-3.16V681.3l-6.45-.34v-9.61h30.89q13.11,0,20.14,4.86t7,15.95q0,7.7-4,12.67a23.64,23.64,0,0,1-9.56,7.24c2.72,1,4.87,3.28,6.45,6.9l8.14,17.77,6.46.22v9.62H470.85v-9.17l3.28-.34c1.73-.22,2.61-.9,2.61-2a3.75,3.75,0,0,0-.46-1.59L471,722.14a10.1,10.1,0,0,0-2.77-4,6.91,6.91,0,0,0-4.35-1.19h-10.3v19.68l7.36.34v9.62Zm20.82-40.39h9.84q13.92,0,13.92-12.45,0-7.12-3.68-9.27t-11.82-2.15h-8.26Z"/><path class="cls-1" d="M537.71,733.34v-52l-6.44-.34v-9.61h27.37v9.16l-3.73.34a3.25,3.25,0,0,0-3.28,3.62v52.15l6.45.34v9.62H530.7v-9.17l3.73-.34a4.46,4.46,0,0,0,2.49-1A3.77,3.77,0,0,0,537.71,733.34Z"/><path class="cls-1" d="M616.23,736.4q13.57,0,13.58-10.86,0-5.65-6-8.38a45.36,45.36,0,0,0-8.2-2.94,64.13,64.13,0,0,1-8.38-2.77,33.79,33.79,0,0,1-6.73-3.9q-6.68-5-6.67-15.33t7.19-16.3q7.17-5.92,18.77-5.93a50.4,50.4,0,0,1,21.55,4.64v17l-11.53.79v-6.56a5.09,5.09,0,0,0-.46-2.49q-1.25-2.15-8-2.15t-10,2.37q-3.23,2.38-3.22,7.36a8.67,8.67,0,0,0,2.71,6.33,13.57,13.57,0,0,0,5.37,3c2.38.79,4.91,1.61,7.59,2.43A56.07,56.07,0,0,1,631,705.4a36.35,36.35,0,0,1,6.51,4.07q6.9,5.1,6.9,15.73t-7.63,16.74q-7.63,6.1-20.14,6.11a52.45,52.45,0,0,1-22.46-4.64V725.54l11.54-.8v6.9a5.27,5.27,0,0,0,.45,2.5c.3.53,1.22,1,2.77,1.52A25.87,25.87,0,0,0,616.23,736.4Z"/><path class="cls-1" d="M731.62,733.34V713.77h-32v22.85l6.57.34v9.62H678.79v-9.17l3.73-.34q3.29-.33,3.28-3.16V681.3l-6.45-.34v-9.61h27.38v9.16l-3.73.34a4.6,4.6,0,0,0-2.6,1,3.72,3.72,0,0,0-.8,2.77v17.54h32V681.3l-6.45-.34v-9.61h27.39v9.16l-3.74.34a3.25,3.25,0,0,0-3.28,3.62v52.15L752,737v9.62H724.61v-9.17l3.73-.34a4.49,4.49,0,0,0,2.49-1A3.77,3.77,0,0,0,731.62,733.34Z"/><path class="cls-1" d="M836.27,746.58v-9.17l4.08-.34a2.82,2.82,0,0,0,2.93-3.16V681.3l-6.44-.34v-9.61H857.2l32,51.92h.23v-42L882,681v-9.61h27.6v9.16l-4.07.34q-2.71.23-2.72,3.51v62.22H889.56l-32.69-52.72h-.23v42.76L864,737v9.62Z"/><path class="cls-1" d="M997.15,746.58H943.41v-9.17l3.73-.34q3.29-.33,3.29-3.16V681.3L944,681v-9.61h51.81v18.77l-11.53.8v-4.53a4.81,4.81,0,0,0-.57-2.71c-.38-.53-1.28-.8-2.72-.8H964.23v19.35h26.13v11.54H964.23v21.16h18.22c1.35,0,2.22-.28,2.59-.85a5.14,5.14,0,0,0,.57-2.77v-5.66l11.54.79Z"/><path class="cls-1" d="M1056.1,736.4q13.58,0,13.57-10.86,0-5.65-6-8.38a45.49,45.49,0,0,0-8.21-2.94,64.44,64.44,0,0,1-8.37-2.77,33.24,33.24,0,0,1-6.73-3.9q-6.67-5-6.68-15.33t7.19-16.3q7.18-5.92,18.78-5.93a50.44,50.44,0,0,1,21.55,4.64v17l-11.54.79v-6.56a5.23,5.23,0,0,0-.45-2.49q-1.24-2.15-8-2.15t-10,2.37q-3.22,2.38-3.23,7.36a8.68,8.68,0,0,0,2.72,6.33,13.5,13.5,0,0,0,5.37,3c2.38.79,4.9,1.61,7.58,2.43a55.66,55.66,0,0,1,7.13,2.72,37.06,37.06,0,0,1,6.51,4.07q6.89,5.1,6.9,15.73t-7.64,16.74q-7.64,6.1-20.14,6.11a52.45,52.45,0,0,1-22.46-4.64V725.54l11.55-.8v6.9a5.29,5.29,0,0,0,.44,2.5c.3.53,1.23,1,2.78,1.52A25.82,25.82,0,0,0,1056.1,736.4Z"/><path class="cls-1" d="M1139.7,733.91V682.55h-8.82c-1.74,0-2.6,1.17-2.6,3.51v5.31l-11.54-.79V671.35h59.17v19.23l-11.54.79v-5.31a4.83,4.83,0,0,0-.57-2.72c-.38-.53-1.28-.79-2.72-.79h-7.69v54.07l8.94.34v9.62h-31.91v-9.17l6-.34Q1139.71,736.74,1139.7,733.91Z"/><path class="cls-1" d="M931.71,359.56a536.59,536.59,0,0,1-60.56,45.19,377,377,0,0,0,26.41-37.9c5.86-2.94,11.47-5.87,16.67-8.74l1.16-.64-5.47-9.91-1.16.64c-.22.13-.49.25-.71.37,3.15-5.87,6-11.53,8.55-16.9l.58-1.2L907,325.61l-.57,1.21c-4.57,9.63-10.2,20.27-16.86,31.41-6,3-12.5,5.91-19.15,8.83l-5.61-8.69-1.12.73a406.91,406.91,0,0,1-57.91,30.77A457.87,457.87,0,0,1,683.5,406.65c-3.33,0-6.69,0-10.06-.11a468.27,468.27,0,0,1-195.08-47.77l-1.19-.58-5,10.15,1.19.59A479.71,479.71,0,0,0,673.2,417.86q5.12.11,10.15.1c13.29,0,26.2-.59,38.76-1.63a383.81,383.81,0,0,1-133.2,3.75c-94.72-14-162.78-59.45-203.2-95.08l-1-.88-7.48,8.48,1,.89c41.55,36.64,111.54,83.35,209,97.79a392.5,392.5,0,0,0,57.43,4.23c65.56,0,121.84-16.66,163.27-34.37A487.21,487.21,0,0,0,878.15,376a360.53,360.53,0,0,1-38.53,47.34A512.17,512.17,0,0,1,764.82,457C685.77,485,610,490,544.18,484.37a369.65,369.65,0,0,1-87.68-56,369.15,369.15,0,0,0,112.4,36.5,374.13,374.13,0,0,0,56.82,4.36c86.76,0,154.28-30.89,186.8-49.31l1.16-.65-5.58-9.85-1.16.66c-41.46,23.47-127.25,60.34-236.32,43.61-61.31-9.42-110.81-33.2-148.26-58.45-4.66-5.14-8.78-10-12.33-14.34l-.84-1L405.32,383a373.2,373.2,0,0,1-58-54.13l-.87-1-8.61,7.35.86,1a388.84,388.84,0,0,0,76.08,67.52,388.91,388.91,0,0,0,97.4,77.11,611.93,611.93,0,0,1-138.83-36.76l-1.25-.5L368,454.12l1.24.48a620.81,620.81,0,0,0,172,40.76,365.39,365.39,0,0,0,150.37,32.1c3,0,5.71-.23,8.61-.3-6,1-12.06,2.07-18.09,2.83-85.64,10.8-173.21-4.67-260.3-46.06l-1.21-.57-4.86,10.22,1.2.58c70.52,33.5,141.85,50.5,212,50.5a436.58,436.58,0,0,0,54.57-3.44,434,434,0,0,0,49.76-9.28l1.3-.33L732.87,525c52.79-5.73,94.13-20.88,116.31-30.83l1.21-.54-4.63-10.33-1.22.55c-21.94,9.84-65.68,26.08-121.69,30.84A345.5,345.5,0,0,0,791.51,479a351,351,0,0,0,55-46.5,543.11,543.11,0,0,0,92.55-64.34l1-.86-7.38-8.58ZM594.2,502.68c-5.79-1.64-11.44-3.42-17-5.29,4.72.12,9.3.43,14.1.43a529.33,529.33,0,0,0,177.26-30.16c14.12-5,28-10.68,41.59-16.87-7.86,6.46-16.12,12.77-25,18.8A339.37,339.37,0,0,1,683.66,516,354.24,354.24,0,0,1,594.2,502.68Z"/><path class="cls-1" d="M553.93,271.64a68.32,68.32,0,0,0,11.19-.93c30.8-5.12,46.22-29.48,49-34.31a5.66,5.66,0,1,0-9.82-5.64c-2.32,4.05-15.25,24.5-41.06,28.79-21,3.49-37.21-5.83-43.14-10a5.66,5.66,0,0,0-6.51,9.27A72.16,72.16,0,0,0,553.93,271.64Z"/><path class="cls-1" d="M735.69,242.36a64.87,64.87,0,0,0,8.94-.63c33.13-4.7,48.59-33.15,50.25-36.38a5.66,5.66,0,1,0-10.08-5.14c-1.38,2.69-14.22,26.4-41.76,30.3-21.46,3.11-37.64-8.08-42.06-11.57a5.67,5.67,0,0,0-9.13,5.12,5.65,5.65,0,0,0,2.13,3.78C698.31,231.24,714.13,242.36,735.69,242.36Z"/><path class="cls-1" d="M617.4,301.79a5.66,5.66,0,0,0-7.37,8.58c4.36,3.74,20.31,15.93,42.56,15.93a62.16,62.16,0,0,0,8.63-.6c34-4.77,48.47-34.5,50-37.87a5.66,5.66,0,1,0-10.29-4.72c-.5,1.12-12.75,27.38-41.28,31.38C637.81,317.54,621.79,305.54,617.4,301.79Z"/><path class="cls-1" d="M571.31,179.35a69.35,69.35,0,0,0,11.07.91,60.4,60.4,0,0,0,26.66-6c22-10.65,36.05-34.48,36.78-62.2a5.66,5.66,0,0,0-5.5-5.8,5.56,5.56,0,0,0-3.94,1.53,5.62,5.62,0,0,0-1.88,4c-.62,23.46-12.27,43.51-30.4,52.31-11.61,5.66-23.25,5.34-31,4.09a5.6,5.6,0,0,0-6.49,4.68A5.67,5.67,0,0,0,571.31,179.35Z"/><path class="cls-1" d="M628.91,169.33a5.56,5.56,0,0,0-3.63,2.34,5.65,5.65,0,0,0,4.65,8.88,4.9,4.9,0,0,0,1-.1,46.63,46.63,0,0,0,24-11.81c15.17-14.52,18.69-39.31,9-63.16a5.66,5.66,0,0,0-10.49,4.27c7.84,19.23,5.3,39.6-6.33,50.7A34.87,34.87,0,0,1,628.91,169.33Z"/><path class="cls-1" d="M821.23,467.55a29.71,29.71,0,0,0-7.61,21.54l.07,1.32,1.34-.06A29.85,29.85,0,0,0,843.24,459l-.07-1.33-1.34.07A29.66,29.66,0,0,0,821.23,467.55Z"/><path class="cls-1" d="M838.3,505.86a16.34,16.34,0,0,0-12.58-.39l-1.25.48.47,1.25a16.47,16.47,0,0,0,21.21,9.56l1.25-.48-.47-1.25A16.36,16.36,0,0,0,838.3,505.86Z"/><path class="cls-1" d="M385,415.1l1.33-.11-.12-1.33a40.94,40.94,0,0,0-44.33-37.24l-1.32.12.11,1.33a40.95,40.95,0,0,0,40.71,37.39C382.6,415.26,383.81,415.21,385,415.1Z"/><path class="cls-1" d="M376.67,491l-.58,1.21,1.21.56a28.23,28.23,0,0,0,37.58-13.43l.57-1.21-1.2-.57A28.27,28.27,0,0,0,376.67,491Z"/><path class="cls-1" d="M960.93,337.23a28.23,28.23,0,0,0-37.58,13.44l-.57,1.21,1.21.57A28.21,28.21,0,0,0,961.56,339l.57-1.21Z"/><path class="cls-1" d="M790.75,519.21c-21.93,19.2-80.63,62.32-165,62.32-3.82,0-7.7-.09-11.62-.28C533.17,577.31,477.7,534,457.61,515.51l-1-.9L449,523l1,.9c26.1,24,82.07,64.74,163.59,68.72,1.79.09,3.54.16,5.31.2q3.67.11,7.27.11c88,0,149.4-45.27,172.12-65.14l1-.88-7.47-8.54Z"/></svg>