<svg id="Layer_1" data-name="Layer 1" xmlns="http://www.w3.org/2000/svg" viewBox="0 0 1300 850"><defs><style>.cls-1{fill:#89c9b8;}</style></defs><path class="cls-1" d="M1058.19,442.59a779.4,779.4,0,0,1-87.75,65.49,547.73,547.73,0,0,0,38.27-54.93c8.49-4.26,16.62-8.5,24.14-12.65l1.69-.94-7.92-14.35-1.69.93-1,.53c4.57-8.5,8.71-16.71,12.4-24.48l.83-1.75-14.82-7-.83,1.75c-6.62,14-14.78,29.38-24.43,45.52-8.71,4.29-18.1,8.56-27.74,12.79l-8.14-12.59-1.62,1.05a588.3,588.3,0,0,1-83.9,44.59,663.67,663.67,0,0,1-177.11,24.31c-4.82,0-9.69-.05-14.57-.16-97-2.08-194.77-26-282.67-69.21l-1.73-.85-7.24,14.71,1.73.86c90,44.23,190.14,68.75,289.56,70.89,4.93.11,9.83.15,14.7.15,19.26,0,38-.85,56.16-2.36a556.29,556.29,0,0,1-193,5.44C424.23,510,325.62,444.14,267.05,392.52l-1.44-1.28-10.84,12.3,1.45,1.28c60.2,53.08,161.62,120.76,302.86,141.7a570.14,570.14,0,0,0,83.21,6.13c95,0,176.54-24.15,236.57-49.81a704.91,704.91,0,0,0,101.72-36.38,522.61,522.61,0,0,1-55.82,68.59,742.65,742.65,0,0,1-108.4,48.72c-114.53,40.6-224.26,47.78-319.68,39.66a535.36,535.36,0,0,1-127.06-81.15,535,535,0,0,0,162.87,52.89,543.73,543.73,0,0,0,82.34,6.32c125.7,0,223.53-44.77,270.65-71.45l1.68-.95-8.08-14.26-1.68.95C817.32,549.79,693,603.2,535,579c-88.84-13.65-160.55-48.1-214.82-84.69-6.75-7.45-12.73-14.45-17.87-20.78l-1.22-1.5-5.6,4.55c-39.79-30.11-68-59.66-84-78.42l-1.26-1.47-12.48,10.65,1.26,1.47c19.51,22.87,56.48,61.28,110.23,97.82A563.54,563.54,0,0,0,450.35,618.34a887.07,887.07,0,0,1-201.16-53.27l-1.81-.71-6,15.24,1.79.71a900,900,0,0,0,249.15,59.06,529.9,529.9,0,0,0,217.88,46.5c4.27,0,8.27-.33,12.47-.43-8.73,1.5-17.47,3-26.21,4.1-124.08,15.65-251-6.77-377.17-66.74L317.5,622l-7.05,14.82,1.75.83c102.17,48.55,205.53,73.17,307.2,73.17a633.36,633.36,0,0,0,79.07-5,629.24,629.24,0,0,0,72.1-13.46l1.88-.47-2.37-9.54c76.48-8.3,136.39-30.26,168.52-44.66l1.76-.8-6.72-15-1.76.79c-31.78,14.26-95.17,37.8-176.32,44.69A500.79,500.79,0,0,0,855,615.62a509,509,0,0,0,79.76-67.39A788.26,788.26,0,0,0,1068.9,455l1.46-1.26-10.7-12.43ZM569.15,650q-12.58-3.57-24.59-7.66c6.84.17,13.48.62,20.44.62a766.8,766.8,0,0,0,256.83-43.71c20.46-7.25,40.53-15.48,60.26-24.44-11.39,9.36-23.36,18.51-36.25,27.25a491.74,491.74,0,0,1-147.06,67.16A513.66,513.66,0,0,1,569.15,650Z"/><path class="cls-1" d="M510.8,315.21A99.79,99.79,0,0,0,527,313.86c44.63-7.43,67-42.72,71-49.72A8.2,8.2,0,1,0,583.8,256c-3.37,5.88-22.11,35.5-59.49,41.72-30.51,5.05-53.92-8.45-62.52-14.48a8.07,8.07,0,0,0-6.11-1.36,8.21,8.21,0,0,0-3.32,14.79C460.33,302.22,481.94,315.21,510.8,315.21Z"/><path class="cls-1" d="M774.16,272.77a93.1,93.1,0,0,0,13-.91c48-6.8,70.41-48,72.81-52.71a8.2,8.2,0,1,0-14.6-7.45c-2,3.89-20.61,38.26-60.51,43.91-31.1,4.5-54.53-11.72-60.95-16.77a8.09,8.09,0,0,0-6-1.71,8.2,8.2,0,0,0-5.49,3.09,8.21,8.21,0,0,0,1.38,11.51C720,256.67,742.93,272.77,774.16,272.77Z"/><path class="cls-1" d="M602.77,358.88a8.2,8.2,0,1,0-10.68,12.44c6.31,5.41,29.42,23.08,61.66,23.08a90.17,90.17,0,0,0,12.51-.87c49.23-6.91,70.23-50,72.46-54.87a8.2,8.2,0,1,0-14.9-6.84c-.74,1.62-18.49,39.67-59.82,45.47C632.33,381.71,609.12,364.32,602.77,358.88Z"/><path class="cls-1" d="M536,181.48a100.16,100.16,0,0,0,16,1.31,87.5,87.5,0,0,0,38.63-8.66c31.81-15.43,52.23-50,53.3-90.12a8.23,8.23,0,0,0-8-8.42,8.47,8.47,0,0,0-8.43,8c-.89,34-17.77,63.05-44,75.81-16.83,8.19-33.7,7.72-44.89,5.91a8.14,8.14,0,0,0-9.41,6.78A8.23,8.23,0,0,0,536,181.48Z"/><path class="cls-1" d="M619.45,167a8.2,8.2,0,0,0,1.47,16.27,7.29,7.29,0,0,0,1.48-.15c13.68-2.5,25.73-8.41,34.84-17.12,22-21,27.09-56.95,13-91.51a8.2,8.2,0,0,0-15.19,6.18c11.35,27.87,7.67,57.39-9.17,73.47C639,160.67,630.12,165,619.45,167Z"/><path class="cls-1" d="M898.11,599.07a43,43,0,0,0-11,31.2l.1,1.92,1.94-.09A43.22,43.22,0,0,0,930,586.64l-.1-1.93-1.93.1A42.93,42.93,0,0,0,898.11,599.07Z"/><path class="cls-1" d="M922.84,654.58a23.67,23.67,0,0,0-18.23-.56l-1.8.68.67,1.82a23.87,23.87,0,0,0,30.74,13.84l1.8-.68-.68-1.82A23.66,23.66,0,0,0,922.84,654.58Z"/><path class="cls-1" d="M266.05,523.07l1.93-.17-.17-1.92a59.31,59.31,0,0,0-64.23-54l-1.92.17.17,1.92a59.32,59.32,0,0,0,59,54.18C262.55,523.3,264.3,523.22,266.05,523.07Z"/><path class="cls-1" d="M254,633l-.83,1.75,1.75.82a40.89,40.89,0,0,0,54.45-19.47l.83-1.75-1.75-.82A41,41,0,0,0,254,633Z"/><path class="cls-1" d="M1100.52,410.24a40.91,40.91,0,0,0-54.44,19.47l-.83,1.76,1.74.82a40.92,40.92,0,0,0,54.45-19.47l.83-1.76Z"/><path class="cls-1" d="M853.94,673.92c-31.78,27.81-116.83,90.29-239.14,90.29-5.54,0-11.17-.12-16.85-.39-117.24-5.72-197.6-68.52-226.72-95.27l-1.42-1.3-11.12,12.1,1.42,1.31c37.82,34.71,118.91,93.81,237,99.57,2.59.12,5.13.23,7.69.29,3.54.1,7,.16,10.53.16,127.47,0,216.47-65.59,249.39-94.39l1.45-1.27-10.82-12.37Z"/></svg>